<?xml version="1.0" standalone="no"?>
<!DOCTYPE svg PUBLIC "-//W3C//DTD SVG 20010904//EN"
 "http://www.w3.org/TR/2001/REC-SVG-20010904/DTD/svg10.dtd">
<svg version="1.0" xmlns="http://www.w3.org/2000/svg"
 width="1024.000000pt" height="1024.000000pt" viewBox="0 0 1024.000000 1024.000000"
 preserveAspectRatio="xMidYMid meet">
<metadata>
Created by potrace 1.10, written by Peter Selinger 2001-2011
</metadata>
<g transform="translate(0.000000,1024.000000) scale(0.100000,-0.100000)"
fill="#000000" stroke="none">
<path d="M4698 9089 c-49 -28 -88 -55 -88 -61 0 -16 64 -98 110 -143 84 -81
159 -213 195 -345 14 -52 19 -118 22 -322 4 -187 2 -258 -6 -258 -6 0 -359
-31 -784 -70 -1103 -99 -1170 -103 -1502 -79 -148 10 -270 17 -272 16 -1 -2
16 -49 38 -105 37 -90 48 -108 103 -159 64 -60 75 -67 218 -132 144 -65 172
-68 334 -37 132 24 1782 236 1845 236 l29 0 0 -405 0 -404 -32 -6 c-63 -10
-1754 -205 -1781 -205 -15 0 -46 9 -68 20 -22 12 -125 38 -228 59 l-188 38
-76 -36 -76 -36 69 -95 c100 -137 133 -211 179 -401 73 -298 132 -663 251
-1530 40 -296 65 -419 96 -481 25 -51 64 -87 101 -94 68 -13 156 43 177 111 6
20 46 25 744 104 405 45 758 85 785 88 l47 6 0 -491 0 -491 -42 -6 c-24 -3
-628 -64 -1343 -136 l-1300 -131 -205 12 c-172 10 -228 18 -350 47 -80 19
-171 40 -204 48 l-58 14 6 -37 c3 -20 15 -83 27 -138 l21 -102 77 -52 c294
-201 275 -191 454 -255 l170 -62 116 33 c64 18 146 46 183 62 219 99 614 203
973 256 132 20 1457 157 1463 152 4 -4 -4 -175 -39 -876 -22 -434 -21 -635 5
-727 50 -184 133 -314 208 -328 106 -20 171 60 209 260 8 41 13 323 16 883 2
452 5 822 6 822 1 0 157 9 347 19 190 11 611 34 935 52 l590 32 540 -42 c297
-23 647 -51 777 -63 224 -20 240 -20 281 -4 70 27 83 75 43 161 -75 161 -425
403 -675 466 l-81 20 -113 -25 c-66 -15 -254 -40 -451 -61 -186 -20 -752 -83
-1257 -140 -506 -58 -924 -105 -929 -105 -6 0 -10 171 -10 480 l0 480 23 4
c12 3 227 21 477 41 250 20 601 47 780 62 l324 26 15 -24 c9 -13 38 -45 65
-72 64 -61 136 -86 195 -68 103 30 199 151 255 321 71 215 196 782 262 1190
55 345 96 508 152 612 99 185 101 159 -20 286 -83 87 -124 121 -208 173 -128
78 -249 129 -309 129 -24 0 -69 -7 -100 -15 -111 -28 -448 -66 -1161 -130
-399 -36 -731 -65 -737 -65 -10 0 -13 87 -13 404 l0 404 88 6 c48 4 393 22
767 41 1311 67 1433 75 1461 85 41 16 72 47 85 87 10 31 8 37 -24 76 -20 23
-62 70 -94 103 -55 59 -63 63 -173 100 -78 26 -130 37 -160 36 -48 -3 -234
-25 -600 -72 -175 -23 -1258 -120 -1334 -120 -14 0 -16 34 -16 314 0 249 3
330 16 392 22 104 15 147 -31 194 -53 54 -105 80 -315 153 -102 36 -192 68
-200 71 -8 3 -54 -17 -102 -45z m2549 -2437 c78 -41 78 -37 38 -404 -20 -177
-37 -323 -38 -324 -4 -2 -1871 -145 -1894 -144 l-23 0 0 395 0 395 33 1 c17 0
379 24 802 54 859 59 1013 63 1082 27z m-2309 -519 l-3 -397 -819 -94 c-536
-61 -821 -90 -825 -83 -8 12 -105 740 -100 745 2 2 153 23 334 45 182 23 566
73 855 110 289 38 533 69 543 70 16 1 17 -22 15 -396z m2252 -522 c0 -28 -58
-311 -107 -523 -44 -190 -61 -248 -73 -248 -21 0 -1552 -128 -1622 -136 l-58
-6 0 384 0 384 263 23 c144 12 474 40 732 62 259 22 535 46 615 53 179 17 250
19 250 7z m-2250 -566 c0 -301 -3 -385 -12 -385 -7 0 -355 -38 -773 -84 -418
-46 -761 -83 -761 -82 -5 4 -74 750 -70 753 2 3 364 44 803 93 439 48 801 88
806 89 4 1 7 -172 7 -384z"/>
</g>
</svg>
